<mxfile host="app.diagrams.net" modified="2020-11-16T13:58:16.535Z" agent="5.0 (Macintosh; Intel Mac OS X 10_15_6) AppleWebKit/605.1.15 (KHTML, like Gecko) Version/13.1.2 Safari/605.1.15" etag="80_wS1AE8vKryK9GoDy9" version="13.9.9" type="github">
  <diagram id="ilsZvrLRqHiUiwLkUFOy" name="Page-1">
    <mxGraphModel dx="1892" dy="1324" grid="1" gridSize="10" guides="1" tooltips="1" connect="1" arrows="1" fold="1" page="1" pageScale="1" pageWidth="1169" pageHeight="827" math="0" shadow="0">
      <root>
        <mxCell id="0" />
        <mxCell id="1" parent="0" />
        <mxCell id="yYmLJBY1VGcVjmOozNTZ-225" value="" style="edgeStyle=orthogonalEdgeStyle;rounded=0;orthogonalLoop=1;jettySize=auto;html=1;fontFamily=Courier New;fontSize=16;sketch=1;fontStyle=1" edge="1" parent="1">
          <mxGeometry relative="1" as="geometry">
            <mxPoint x="310" y="224.58000000000004" as="sourcePoint" />
            <mxPoint x="360" y="224.58000000000004" as="targetPoint" />
            <Array as="points">
              <mxPoint x="300" y="225.08000000000004" />
              <mxPoint x="300" y="225.08000000000004" />
            </Array>
          </mxGeometry>
        </mxCell>
        <mxCell id="yYmLJBY1VGcVjmOozNTZ-226" value="" style="shape=table;html=1;whiteSpace=wrap;startSize=0;container=1;collapsible=0;childLayout=tableLayout;fontSize=16;fontFamily=Courier New;fontStyle=1;swimlaneFillColor=#ffffff;fillColor=#D4E1F5;sketch=0;" vertex="1" parent="1">
          <mxGeometry x="40" y="70" width="240" height="310" as="geometry" />
        </mxCell>
        <mxCell id="yYmLJBY1VGcVjmOozNTZ-227" value="" style="shape=partialRectangle;html=1;whiteSpace=wrap;collapsible=0;dropTarget=0;pointerEvents=0;fillColor=none;top=0;left=0;bottom=0;right=0;points=[[0,0.5],[1,0.5]];portConstraint=eastwest;fontSize=16;fontFamily=Courier New;fontStyle=1" vertex="1" parent="yYmLJBY1VGcVjmOozNTZ-226">
          <mxGeometry width="240" height="78" as="geometry" />
        </mxCell>
        <mxCell id="yYmLJBY1VGcVjmOozNTZ-228" value="5" style="shape=partialRectangle;html=1;whiteSpace=wrap;connectable=0;overflow=hidden;fillColor=none;top=0;left=0;bottom=0;right=0;fontSize=16;fontFamily=Courier New;fontStyle=1" vertex="1" parent="yYmLJBY1VGcVjmOozNTZ-227">
          <mxGeometry width="51" height="78" as="geometry" />
        </mxCell>
        <mxCell id="yYmLJBY1VGcVjmOozNTZ-229" value="3" style="shape=partialRectangle;html=1;whiteSpace=wrap;connectable=0;overflow=hidden;fillColor=none;top=0;left=0;bottom=0;right=0;fontSize=16;fontFamily=Courier New;fontStyle=1" vertex="1" parent="yYmLJBY1VGcVjmOozNTZ-227">
          <mxGeometry x="51" width="52" height="78" as="geometry" />
        </mxCell>
        <mxCell id="yYmLJBY1VGcVjmOozNTZ-230" value="..." style="shape=partialRectangle;html=1;whiteSpace=wrap;connectable=0;overflow=hidden;fillColor=none;top=0;left=0;bottom=0;right=0;dashed=1;fontSize=16;fontFamily=Courier New;fontStyle=1;strokeColor=none;" vertex="1" parent="yYmLJBY1VGcVjmOozNTZ-227">
          <mxGeometry x="103" width="86" height="78" as="geometry" />
        </mxCell>
        <mxCell id="yYmLJBY1VGcVjmOozNTZ-231" value="4" style="shape=partialRectangle;html=1;whiteSpace=wrap;connectable=0;overflow=hidden;fillColor=none;top=0;left=0;bottom=0;right=0;fontSize=16;fontFamily=Courier New;fontStyle=1" vertex="1" parent="yYmLJBY1VGcVjmOozNTZ-227">
          <mxGeometry x="189" width="51" height="78" as="geometry" />
        </mxCell>
        <mxCell id="yYmLJBY1VGcVjmOozNTZ-232" value="" style="shape=partialRectangle;html=1;whiteSpace=wrap;collapsible=0;dropTarget=0;pointerEvents=0;fillColor=none;top=0;left=0;bottom=0;right=0;points=[[0,0.5],[1,0.5]];portConstraint=eastwest;fontSize=16;fontFamily=Courier New;fontStyle=1" vertex="1" parent="yYmLJBY1VGcVjmOozNTZ-226">
          <mxGeometry y="78" width="240" height="77" as="geometry" />
        </mxCell>
        <mxCell id="yYmLJBY1VGcVjmOozNTZ-233" value="1" style="shape=partialRectangle;html=1;whiteSpace=wrap;connectable=0;overflow=hidden;fillColor=none;top=0;left=0;bottom=0;right=0;fontSize=16;fontFamily=Courier New;fontStyle=1" vertex="1" parent="yYmLJBY1VGcVjmOozNTZ-232">
          <mxGeometry width="51" height="77" as="geometry" />
        </mxCell>
        <mxCell id="yYmLJBY1VGcVjmOozNTZ-234" value="0" style="shape=partialRectangle;html=1;whiteSpace=wrap;connectable=0;overflow=hidden;fillColor=none;top=0;left=0;bottom=0;right=0;fontSize=16;fontFamily=Courier New;fontStyle=1" vertex="1" parent="yYmLJBY1VGcVjmOozNTZ-232">
          <mxGeometry x="51" width="52" height="77" as="geometry" />
        </mxCell>
        <mxCell id="yYmLJBY1VGcVjmOozNTZ-235" value="..." style="shape=partialRectangle;html=1;whiteSpace=wrap;connectable=0;overflow=hidden;fillColor=none;top=0;left=0;bottom=0;right=0;fontSize=16;fontFamily=Courier New;fontStyle=1" vertex="1" parent="yYmLJBY1VGcVjmOozNTZ-232">
          <mxGeometry x="103" width="86" height="77" as="geometry" />
        </mxCell>
        <mxCell id="yYmLJBY1VGcVjmOozNTZ-236" value="0" style="shape=partialRectangle;html=1;whiteSpace=wrap;connectable=0;overflow=hidden;fillColor=none;top=0;left=0;bottom=0;right=0;fontSize=16;fontFamily=Courier New;fontStyle=1" vertex="1" parent="yYmLJBY1VGcVjmOozNTZ-232">
          <mxGeometry x="189" width="51" height="77" as="geometry" />
        </mxCell>
        <mxCell id="yYmLJBY1VGcVjmOozNTZ-237" value="" style="shape=partialRectangle;html=1;whiteSpace=wrap;collapsible=0;dropTarget=0;pointerEvents=0;fillColor=none;top=0;left=0;bottom=0;right=0;points=[[0,0.5],[1,0.5]];portConstraint=eastwest;strokeColor=none;fontSize=16;fontFamily=Courier New;fontStyle=1" vertex="1" parent="yYmLJBY1VGcVjmOozNTZ-226">
          <mxGeometry y="155" width="240" height="78" as="geometry" />
        </mxCell>
        <mxCell id="yYmLJBY1VGcVjmOozNTZ-238" value="..." style="shape=partialRectangle;html=1;whiteSpace=wrap;connectable=0;overflow=hidden;fillColor=none;top=0;left=0;bottom=0;right=0;fontSize=16;fontFamily=Courier New;fontStyle=1" vertex="1" parent="yYmLJBY1VGcVjmOozNTZ-237">
          <mxGeometry width="51" height="78" as="geometry" />
        </mxCell>
        <mxCell id="yYmLJBY1VGcVjmOozNTZ-239" value="..." style="shape=partialRectangle;html=1;whiteSpace=wrap;connectable=0;overflow=hidden;fillColor=none;top=0;left=0;bottom=0;right=0;fontSize=16;fontFamily=Courier New;fontStyle=1" vertex="1" parent="yYmLJBY1VGcVjmOozNTZ-237">
          <mxGeometry x="51" width="52" height="78" as="geometry" />
        </mxCell>
        <mxCell id="yYmLJBY1VGcVjmOozNTZ-240" value="..." style="shape=partialRectangle;html=1;whiteSpace=wrap;connectable=0;overflow=hidden;fillColor=none;top=0;left=0;bottom=0;right=0;fontSize=16;fontFamily=Courier New;fontStyle=1" vertex="1" parent="yYmLJBY1VGcVjmOozNTZ-237">
          <mxGeometry x="103" width="86" height="78" as="geometry" />
        </mxCell>
        <mxCell id="yYmLJBY1VGcVjmOozNTZ-241" value="..." style="shape=partialRectangle;html=1;whiteSpace=wrap;connectable=0;overflow=hidden;fillColor=none;top=0;left=0;bottom=0;right=0;fontSize=16;fontFamily=Courier New;fontStyle=1" vertex="1" parent="yYmLJBY1VGcVjmOozNTZ-237">
          <mxGeometry x="189" width="51" height="78" as="geometry" />
        </mxCell>
        <mxCell id="yYmLJBY1VGcVjmOozNTZ-242" value="" style="shape=partialRectangle;html=1;whiteSpace=wrap;collapsible=0;dropTarget=0;pointerEvents=0;fillColor=none;top=0;left=0;bottom=0;right=0;points=[[0,0.5],[1,0.5]];portConstraint=eastwest;fontSize=16;fontFamily=Courier New;fontStyle=1" vertex="1" parent="yYmLJBY1VGcVjmOozNTZ-226">
          <mxGeometry y="233" width="240" height="77" as="geometry" />
        </mxCell>
        <mxCell id="yYmLJBY1VGcVjmOozNTZ-243" value="0" style="shape=partialRectangle;html=1;whiteSpace=wrap;connectable=0;overflow=hidden;fillColor=none;top=0;left=0;bottom=0;right=0;fontSize=16;fontFamily=Courier New;fontStyle=1" vertex="1" parent="yYmLJBY1VGcVjmOozNTZ-242">
          <mxGeometry width="51" height="77" as="geometry" />
        </mxCell>
        <mxCell id="yYmLJBY1VGcVjmOozNTZ-244" value="5" style="shape=partialRectangle;html=1;whiteSpace=wrap;connectable=0;overflow=hidden;fillColor=none;top=0;left=0;bottom=0;right=0;fontSize=16;fontFamily=Courier New;fontStyle=1" vertex="1" parent="yYmLJBY1VGcVjmOozNTZ-242">
          <mxGeometry x="51" width="52" height="77" as="geometry" />
        </mxCell>
        <mxCell id="yYmLJBY1VGcVjmOozNTZ-245" value="..." style="shape=partialRectangle;html=1;whiteSpace=wrap;connectable=0;overflow=hidden;fillColor=none;top=0;left=0;bottom=0;right=0;fontSize=16;fontFamily=Courier New;fontStyle=1" vertex="1" parent="yYmLJBY1VGcVjmOozNTZ-242">
          <mxGeometry x="103" width="86" height="77" as="geometry" />
        </mxCell>
        <mxCell id="yYmLJBY1VGcVjmOozNTZ-246" value="0" style="shape=partialRectangle;html=1;whiteSpace=wrap;connectable=0;overflow=hidden;fillColor=none;top=0;left=0;bottom=0;right=0;fontSize=16;fontFamily=Courier New;fontStyle=1" vertex="1" parent="yYmLJBY1VGcVjmOozNTZ-242">
          <mxGeometry x="189" width="51" height="77" as="geometry" />
        </mxCell>
        <mxCell id="yYmLJBY1VGcVjmOozNTZ-247" value="&lt;span&gt;&lt;font style=&quot;font-size: 19px&quot;&gt;R&lt;/font&gt;&lt;/span&gt;" style="text;html=1;strokeColor=none;fillColor=none;align=center;verticalAlign=middle;whiteSpace=wrap;rounded=0;dashed=1;fontFamily=Courier New;fontSize=16;fontStyle=1" vertex="1" parent="1">
          <mxGeometry x="140" y="40" width="40" height="20" as="geometry" />
        </mxCell>
        <mxCell id="yYmLJBY1VGcVjmOozNTZ-248" value="" style="shape=table;html=1;whiteSpace=wrap;startSize=0;container=1;collapsible=0;childLayout=tableLayout;fontSize=16;fontFamily=Courier New;fontStyle=1;sketch=0;fillColor=#D4E1F5;" vertex="1" parent="1">
          <mxGeometry x="384" y="70" width="666" height="310" as="geometry" />
        </mxCell>
        <mxCell id="yYmLJBY1VGcVjmOozNTZ-249" value="" style="shape=partialRectangle;html=1;whiteSpace=wrap;collapsible=0;dropTarget=0;pointerEvents=0;fillColor=none;top=0;left=0;bottom=0;right=0;points=[[0,0.5],[1,0.5]];portConstraint=eastwest;fontSize=16;fontFamily=Courier New;fontStyle=1" vertex="1" parent="yYmLJBY1VGcVjmOozNTZ-248">
          <mxGeometry width="666" height="78" as="geometry" />
        </mxCell>
        <mxCell id="yYmLJBY1VGcVjmOozNTZ-250" value="emb_5" style="shape=partialRectangle;html=1;whiteSpace=wrap;connectable=0;overflow=hidden;fillColor=none;top=0;left=0;bottom=0;right=0;fontSize=16;fontFamily=Courier New;fontStyle=1" vertex="1" parent="yYmLJBY1VGcVjmOozNTZ-249">
          <mxGeometry width="145" height="78" as="geometry" />
        </mxCell>
        <mxCell id="yYmLJBY1VGcVjmOozNTZ-251" value="emb_3" style="shape=partialRectangle;html=1;whiteSpace=wrap;connectable=0;overflow=hidden;fillColor=none;top=0;left=0;bottom=0;right=0;fontSize=16;fontFamily=Courier New;fontStyle=1" vertex="1" parent="yYmLJBY1VGcVjmOozNTZ-249">
          <mxGeometry x="145" width="138" height="78" as="geometry" />
        </mxCell>
        <mxCell id="yYmLJBY1VGcVjmOozNTZ-252" value="..." style="shape=partialRectangle;html=1;whiteSpace=wrap;connectable=0;overflow=hidden;fillColor=none;top=0;left=0;bottom=0;right=0;dashed=1;fontSize=16;fontFamily=Courier New;fontStyle=1;strokeColor=none;" vertex="1" parent="yYmLJBY1VGcVjmOozNTZ-249">
          <mxGeometry x="283" width="238" height="78" as="geometry" />
        </mxCell>
        <mxCell id="yYmLJBY1VGcVjmOozNTZ-253" value="emb_4" style="shape=partialRectangle;html=1;whiteSpace=wrap;connectable=0;overflow=hidden;fillColor=none;top=0;left=0;bottom=0;right=0;fontSize=16;fontFamily=Courier New;fontStyle=1" vertex="1" parent="yYmLJBY1VGcVjmOozNTZ-249">
          <mxGeometry x="521" width="145" height="78" as="geometry" />
        </mxCell>
        <mxCell id="yYmLJBY1VGcVjmOozNTZ-254" value="" style="shape=partialRectangle;html=1;whiteSpace=wrap;collapsible=0;dropTarget=0;pointerEvents=0;fillColor=none;top=0;left=0;bottom=0;right=0;points=[[0,0.5],[1,0.5]];portConstraint=eastwest;fontSize=16;fontFamily=Courier New;fontStyle=1" vertex="1" parent="yYmLJBY1VGcVjmOozNTZ-248">
          <mxGeometry y="78" width="666" height="77" as="geometry" />
        </mxCell>
        <mxCell id="yYmLJBY1VGcVjmOozNTZ-255" value="emb_1" style="shape=partialRectangle;html=1;whiteSpace=wrap;connectable=0;overflow=hidden;fillColor=none;top=0;left=0;bottom=0;right=0;fontSize=16;fontFamily=Courier New;fontStyle=1" vertex="1" parent="yYmLJBY1VGcVjmOozNTZ-254">
          <mxGeometry width="145" height="77" as="geometry" />
        </mxCell>
        <mxCell id="yYmLJBY1VGcVjmOozNTZ-256" value="emb_0" style="shape=partialRectangle;html=1;whiteSpace=wrap;connectable=0;overflow=hidden;fillColor=none;top=0;left=0;bottom=0;right=0;fontSize=16;fontFamily=Courier New;fontStyle=1" vertex="1" parent="yYmLJBY1VGcVjmOozNTZ-254">
          <mxGeometry x="145" width="138" height="77" as="geometry" />
        </mxCell>
        <mxCell id="yYmLJBY1VGcVjmOozNTZ-257" value="..." style="shape=partialRectangle;html=1;whiteSpace=wrap;connectable=0;overflow=hidden;fillColor=none;top=0;left=0;bottom=0;right=0;fontSize=16;fontFamily=Courier New;fontStyle=1" vertex="1" parent="yYmLJBY1VGcVjmOozNTZ-254">
          <mxGeometry x="283" width="238" height="77" as="geometry" />
        </mxCell>
        <mxCell id="yYmLJBY1VGcVjmOozNTZ-258" value="emb_0" style="shape=partialRectangle;html=1;whiteSpace=wrap;connectable=0;overflow=hidden;fillColor=none;top=0;left=0;bottom=0;right=0;fontSize=16;fontFamily=Courier New;fontStyle=1" vertex="1" parent="yYmLJBY1VGcVjmOozNTZ-254">
          <mxGeometry x="521" width="145" height="77" as="geometry" />
        </mxCell>
        <mxCell id="yYmLJBY1VGcVjmOozNTZ-259" value="" style="shape=partialRectangle;html=1;whiteSpace=wrap;collapsible=0;dropTarget=0;pointerEvents=0;fillColor=none;top=0;left=0;bottom=0;right=0;points=[[0,0.5],[1,0.5]];portConstraint=eastwest;strokeColor=none;fontSize=16;fontFamily=Courier New;fontStyle=1" vertex="1" parent="yYmLJBY1VGcVjmOozNTZ-248">
          <mxGeometry y="155" width="666" height="78" as="geometry" />
        </mxCell>
        <mxCell id="yYmLJBY1VGcVjmOozNTZ-260" value="..." style="shape=partialRectangle;html=1;whiteSpace=wrap;connectable=0;overflow=hidden;fillColor=none;top=0;left=0;bottom=0;right=0;fontSize=16;fontFamily=Courier New;fontStyle=1" vertex="1" parent="yYmLJBY1VGcVjmOozNTZ-259">
          <mxGeometry width="145" height="78" as="geometry" />
        </mxCell>
        <mxCell id="yYmLJBY1VGcVjmOozNTZ-261" value="..." style="shape=partialRectangle;html=1;whiteSpace=wrap;connectable=0;overflow=hidden;fillColor=none;top=0;left=0;bottom=0;right=0;fontSize=16;fontFamily=Courier New;fontStyle=1" vertex="1" parent="yYmLJBY1VGcVjmOozNTZ-259">
          <mxGeometry x="145" width="138" height="78" as="geometry" />
        </mxCell>
        <mxCell id="yYmLJBY1VGcVjmOozNTZ-262" value="..." style="shape=partialRectangle;html=1;whiteSpace=wrap;connectable=0;overflow=hidden;fillColor=none;top=0;left=0;bottom=0;right=0;fontSize=16;fontFamily=Courier New;fontStyle=1" vertex="1" parent="yYmLJBY1VGcVjmOozNTZ-259">
          <mxGeometry x="283" width="238" height="78" as="geometry" />
        </mxCell>
        <mxCell id="yYmLJBY1VGcVjmOozNTZ-263" value="..." style="shape=partialRectangle;html=1;whiteSpace=wrap;connectable=0;overflow=hidden;fillColor=none;top=0;left=0;bottom=0;right=0;fontSize=16;fontFamily=Courier New;fontStyle=1" vertex="1" parent="yYmLJBY1VGcVjmOozNTZ-259">
          <mxGeometry x="521" width="145" height="78" as="geometry" />
        </mxCell>
        <mxCell id="yYmLJBY1VGcVjmOozNTZ-264" value="" style="shape=partialRectangle;html=1;whiteSpace=wrap;collapsible=0;dropTarget=0;pointerEvents=0;fillColor=none;top=0;left=0;bottom=0;right=0;points=[[0,0.5],[1,0.5]];portConstraint=eastwest;fontSize=16;fontFamily=Courier New;fontStyle=1" vertex="1" parent="yYmLJBY1VGcVjmOozNTZ-248">
          <mxGeometry y="233" width="666" height="77" as="geometry" />
        </mxCell>
        <mxCell id="yYmLJBY1VGcVjmOozNTZ-265" value="emb_0" style="shape=partialRectangle;html=1;whiteSpace=wrap;connectable=0;overflow=hidden;fillColor=none;top=0;left=0;bottom=0;right=0;fontSize=16;fontFamily=Courier New;fontStyle=1" vertex="1" parent="yYmLJBY1VGcVjmOozNTZ-264">
          <mxGeometry width="145" height="77" as="geometry" />
        </mxCell>
        <mxCell id="yYmLJBY1VGcVjmOozNTZ-266" value="emb_5" style="shape=partialRectangle;html=1;whiteSpace=wrap;connectable=0;overflow=hidden;fillColor=none;top=0;left=0;bottom=0;right=0;fontSize=16;fontFamily=Courier New;fontStyle=1" vertex="1" parent="yYmLJBY1VGcVjmOozNTZ-264">
          <mxGeometry x="145" width="138" height="77" as="geometry" />
        </mxCell>
        <mxCell id="yYmLJBY1VGcVjmOozNTZ-267" value="..." style="shape=partialRectangle;html=1;whiteSpace=wrap;connectable=0;overflow=hidden;fillColor=none;top=0;left=0;bottom=0;right=0;fontSize=16;fontFamily=Courier New;fontStyle=1" vertex="1" parent="yYmLJBY1VGcVjmOozNTZ-264">
          <mxGeometry x="283" width="238" height="77" as="geometry" />
        </mxCell>
        <mxCell id="yYmLJBY1VGcVjmOozNTZ-268" value="emb_0" style="shape=partialRectangle;html=1;whiteSpace=wrap;connectable=0;overflow=hidden;fillColor=none;top=0;left=0;bottom=0;right=0;fontSize=16;fontFamily=Courier New;fontStyle=1" vertex="1" parent="yYmLJBY1VGcVjmOozNTZ-264">
          <mxGeometry x="521" width="145" height="77" as="geometry" />
        </mxCell>
        <mxCell id="yYmLJBY1VGcVjmOozNTZ-269" value="&lt;span&gt;&lt;font style=&quot;font-size: 19px&quot;&gt;A&lt;/font&gt;&lt;/span&gt;" style="text;html=1;strokeColor=none;fillColor=none;align=center;verticalAlign=middle;whiteSpace=wrap;rounded=0;dashed=1;fontFamily=Courier New;fontSize=16;fontStyle=1" vertex="1" parent="1">
          <mxGeometry x="699" y="40" width="40" height="20" as="geometry" />
        </mxCell>
        <mxCell id="yYmLJBY1VGcVjmOozNTZ-270" value="Рис. 1" style="text;html=1;align=center;verticalAlign=middle;resizable=0;points=[];autosize=1;fontSize=16;fontFamily=Courier New;sketch=0;fontStyle=1" vertex="1" parent="1">
          <mxGeometry x="300" y="400" width="70" height="20" as="geometry" />
        </mxCell>
        <mxCell id="yYmLJBY1VGcVjmOozNTZ-271" value="&lt;span&gt;&lt;font style=&quot;font-size: 19px&quot;&gt;A_ohe&lt;/font&gt;&lt;/span&gt;" style="text;html=1;strokeColor=none;fillColor=none;align=center;verticalAlign=middle;whiteSpace=wrap;rounded=0;dashed=1;fontFamily=Courier New;fontSize=16;fontStyle=1" vertex="1" parent="1">
          <mxGeometry x="685" y="500" width="40" height="20" as="geometry" />
        </mxCell>
        <mxCell id="yYmLJBY1VGcVjmOozNTZ-272" value="Рис. 2" style="text;html=1;align=center;verticalAlign=middle;resizable=0;points=[];autosize=1;fontSize=16;fontFamily=Courier New;sketch=0;fontStyle=1" vertex="1" parent="1">
          <mxGeometry x="290" y="807" width="70" height="20" as="geometry" />
        </mxCell>
        <mxCell id="yYmLJBY1VGcVjmOozNTZ-273" value="" style="shape=table;html=1;whiteSpace=wrap;startSize=0;container=1;collapsible=0;childLayout=tableLayout;rounded=0;shadow=0;swimlaneFillColor=#ffffff;strokeColor=#000000;fillColor=#D4E1F5;fontStyle=1;fontFamily=Courier New;textOpacity=50;" vertex="1" parent="1">
          <mxGeometry x="384" y="480" width="666" height="320" as="geometry" />
        </mxCell>
        <mxCell id="yYmLJBY1VGcVjmOozNTZ-274" value="" style="shape=partialRectangle;html=1;whiteSpace=wrap;collapsible=0;dropTarget=0;pointerEvents=0;fillColor=none;top=0;left=0;bottom=0;right=0;points=[[0,0.5],[1,0.5]];portConstraint=eastwest;fontStyle=1;fontFamily=Courier New;" vertex="1" parent="yYmLJBY1VGcVjmOozNTZ-273">
          <mxGeometry width="666" height="66" as="geometry" />
        </mxCell>
        <mxCell id="yYmLJBY1VGcVjmOozNTZ-275" value="0" style="shape=partialRectangle;html=1;whiteSpace=wrap;connectable=0;overflow=hidden;fillColor=none;top=0;left=0;bottom=0;right=0;fontStyle=1;fontFamily=Courier New;" vertex="1" parent="yYmLJBY1VGcVjmOozNTZ-274">
          <mxGeometry width="43" height="66" as="geometry" />
        </mxCell>
        <mxCell id="yYmLJBY1VGcVjmOozNTZ-276" value="0" style="shape=partialRectangle;html=1;whiteSpace=wrap;connectable=0;overflow=hidden;fillColor=none;top=0;left=0;bottom=0;right=0;fontStyle=1;fontFamily=Courier New;" vertex="1" parent="yYmLJBY1VGcVjmOozNTZ-274">
          <mxGeometry x="43" width="43" height="66" as="geometry" />
        </mxCell>
        <mxCell id="yYmLJBY1VGcVjmOozNTZ-277" value="0" style="shape=partialRectangle;html=1;whiteSpace=wrap;connectable=0;overflow=hidden;fillColor=none;top=0;left=0;bottom=0;right=0;fontStyle=1;fontFamily=Courier New;" vertex="1" parent="yYmLJBY1VGcVjmOozNTZ-274">
          <mxGeometry x="86" width="43" height="66" as="geometry" />
        </mxCell>
        <mxCell id="yYmLJBY1VGcVjmOozNTZ-278" value="0" style="shape=partialRectangle;html=1;whiteSpace=wrap;connectable=0;overflow=hidden;fillColor=none;top=0;left=0;bottom=0;right=0;fontStyle=1;fontFamily=Courier New;" vertex="1" parent="yYmLJBY1VGcVjmOozNTZ-274">
          <mxGeometry x="129" width="40" height="66" as="geometry" />
        </mxCell>
        <mxCell id="yYmLJBY1VGcVjmOozNTZ-279" value="1" style="shape=partialRectangle;html=1;whiteSpace=wrap;connectable=0;overflow=hidden;fillColor=none;top=0;left=0;bottom=0;right=0;strokeColor=#000000;fontStyle=1;fontFamily=Courier New;perimeterSpacing=0;" vertex="1" parent="yYmLJBY1VGcVjmOozNTZ-274">
          <mxGeometry x="169" width="44" height="66" as="geometry" />
        </mxCell>
        <mxCell id="yYmLJBY1VGcVjmOozNTZ-280" value="0" style="shape=partialRectangle;html=1;whiteSpace=wrap;connectable=0;overflow=hidden;fillColor=none;top=0;left=0;bottom=0;right=0;fontStyle=1;fontFamily=Courier New;" vertex="1" parent="yYmLJBY1VGcVjmOozNTZ-274">
          <mxGeometry x="213" width="43" height="66" as="geometry" />
        </mxCell>
        <mxCell id="yYmLJBY1VGcVjmOozNTZ-281" value="0" style="shape=partialRectangle;html=1;whiteSpace=wrap;connectable=0;overflow=hidden;fillColor=none;top=0;left=0;bottom=0;right=0;fontStyle=1;fontFamily=Courier New;" vertex="1" parent="yYmLJBY1VGcVjmOozNTZ-274">
          <mxGeometry x="256" width="42" height="66" as="geometry" />
        </mxCell>
        <mxCell id="yYmLJBY1VGcVjmOozNTZ-282" value="1" style="shape=partialRectangle;html=1;whiteSpace=wrap;connectable=0;overflow=hidden;fillColor=none;top=0;left=0;bottom=0;right=0;fontStyle=1;fontFamily=Courier New;" vertex="1" parent="yYmLJBY1VGcVjmOozNTZ-274">
          <mxGeometry x="298" width="38" height="66" as="geometry" />
        </mxCell>
        <mxCell id="yYmLJBY1VGcVjmOozNTZ-283" value="0" style="shape=partialRectangle;html=1;whiteSpace=wrap;connectable=0;overflow=hidden;fillColor=none;top=0;left=0;bottom=0;right=0;fontStyle=1;fontFamily=Courier New;" vertex="1" parent="yYmLJBY1VGcVjmOozNTZ-274">
          <mxGeometry x="336" width="32" height="66" as="geometry" />
        </mxCell>
        <mxCell id="yYmLJBY1VGcVjmOozNTZ-284" value="0" style="shape=partialRectangle;html=1;whiteSpace=wrap;connectable=0;overflow=hidden;fillColor=none;top=0;left=0;bottom=0;right=0;fontStyle=1;fontFamily=Courier New;" vertex="1" parent="yYmLJBY1VGcVjmOozNTZ-274">
          <mxGeometry x="368" width="44" height="66" as="geometry" />
        </mxCell>
        <mxCell id="yYmLJBY1VGcVjmOozNTZ-285" value="" style="shape=partialRectangle;html=1;whiteSpace=wrap;connectable=0;overflow=hidden;fillColor=none;top=0;left=0;bottom=0;right=0;fontStyle=1;fontFamily=Courier New;" vertex="1" parent="yYmLJBY1VGcVjmOozNTZ-274">
          <mxGeometry x="412" width="53" height="66" as="geometry" />
        </mxCell>
        <mxCell id="yYmLJBY1VGcVjmOozNTZ-286" value="0" style="shape=partialRectangle;html=1;whiteSpace=wrap;connectable=0;overflow=hidden;fillColor=none;top=0;left=0;bottom=0;right=0;fontStyle=1;fontFamily=Courier New;" vertex="1" parent="yYmLJBY1VGcVjmOozNTZ-274">
          <mxGeometry x="465" width="31" height="66" as="geometry" />
        </mxCell>
        <mxCell id="yYmLJBY1VGcVjmOozNTZ-287" value="0" style="shape=partialRectangle;html=1;whiteSpace=wrap;connectable=0;overflow=hidden;fillColor=none;top=0;left=0;bottom=0;right=0;fontStyle=1;fontFamily=Courier New;" vertex="1" parent="yYmLJBY1VGcVjmOozNTZ-274">
          <mxGeometry x="496" width="41" height="66" as="geometry" />
        </mxCell>
        <mxCell id="yYmLJBY1VGcVjmOozNTZ-288" value="0" style="shape=partialRectangle;html=1;whiteSpace=wrap;connectable=0;overflow=hidden;fillColor=none;top=0;left=0;bottom=0;right=0;fontStyle=1;fontFamily=Courier New;" vertex="1" parent="yYmLJBY1VGcVjmOozNTZ-274">
          <mxGeometry x="537" width="43" height="66" as="geometry" />
        </mxCell>
        <mxCell id="yYmLJBY1VGcVjmOozNTZ-289" value="1" style="shape=partialRectangle;html=1;whiteSpace=wrap;connectable=0;overflow=hidden;fillColor=none;top=0;left=0;bottom=0;right=0;fontStyle=1;fontFamily=Courier New;" vertex="1" parent="yYmLJBY1VGcVjmOozNTZ-274">
          <mxGeometry x="580" width="43" height="66" as="geometry" />
        </mxCell>
        <mxCell id="yYmLJBY1VGcVjmOozNTZ-290" value="0" style="shape=partialRectangle;html=1;whiteSpace=wrap;connectable=0;overflow=hidden;fillColor=none;top=0;left=0;bottom=0;right=0;fontStyle=1;fontFamily=Courier New;" vertex="1" parent="yYmLJBY1VGcVjmOozNTZ-274">
          <mxGeometry x="623" width="43" height="66" as="geometry" />
        </mxCell>
        <mxCell id="yYmLJBY1VGcVjmOozNTZ-291" value="" style="shape=partialRectangle;html=1;whiteSpace=wrap;collapsible=0;dropTarget=0;pointerEvents=0;fillColor=none;top=0;left=0;bottom=0;right=0;points=[[0,0.5],[1,0.5]];portConstraint=eastwest;fontStyle=1;fontFamily=Courier New;" vertex="1" parent="yYmLJBY1VGcVjmOozNTZ-273">
          <mxGeometry y="66" width="666" height="62" as="geometry" />
        </mxCell>
        <mxCell id="yYmLJBY1VGcVjmOozNTZ-292" value="0" style="shape=partialRectangle;html=1;whiteSpace=wrap;connectable=0;overflow=hidden;fillColor=none;top=0;left=0;bottom=0;right=0;fontStyle=1;fontFamily=Courier New;" vertex="1" parent="yYmLJBY1VGcVjmOozNTZ-291">
          <mxGeometry width="43" height="62" as="geometry" />
        </mxCell>
        <mxCell id="yYmLJBY1VGcVjmOozNTZ-293" value="1" style="shape=partialRectangle;html=1;whiteSpace=wrap;connectable=0;overflow=hidden;fillColor=none;top=0;left=0;bottom=0;right=0;fontStyle=1;fontFamily=Courier New;" vertex="1" parent="yYmLJBY1VGcVjmOozNTZ-291">
          <mxGeometry x="43" width="43" height="62" as="geometry" />
        </mxCell>
        <mxCell id="yYmLJBY1VGcVjmOozNTZ-294" value="0" style="shape=partialRectangle;html=1;whiteSpace=wrap;connectable=0;overflow=hidden;fillColor=none;top=0;left=0;bottom=0;right=0;fontStyle=1;fontFamily=Courier New;" vertex="1" parent="yYmLJBY1VGcVjmOozNTZ-291">
          <mxGeometry x="86" width="43" height="62" as="geometry" />
        </mxCell>
        <mxCell id="yYmLJBY1VGcVjmOozNTZ-295" value="0" style="shape=partialRectangle;html=1;whiteSpace=wrap;connectable=0;overflow=hidden;fillColor=none;top=0;left=0;bottom=0;right=0;fontStyle=1;fontFamily=Courier New;" vertex="1" parent="yYmLJBY1VGcVjmOozNTZ-291">
          <mxGeometry x="129" width="40" height="62" as="geometry" />
        </mxCell>
        <mxCell id="yYmLJBY1VGcVjmOozNTZ-296" value="0" style="shape=partialRectangle;html=1;whiteSpace=wrap;connectable=0;overflow=hidden;fillColor=none;top=0;left=0;bottom=0;right=0;fontStyle=1;fontFamily=Courier New;" vertex="1" parent="yYmLJBY1VGcVjmOozNTZ-291">
          <mxGeometry x="169" width="44" height="62" as="geometry" />
        </mxCell>
        <mxCell id="yYmLJBY1VGcVjmOozNTZ-297" value="0" style="shape=partialRectangle;html=1;whiteSpace=wrap;connectable=0;overflow=hidden;fillColor=none;top=0;left=0;bottom=0;right=0;fontStyle=1;fontFamily=Courier New;" vertex="1" parent="yYmLJBY1VGcVjmOozNTZ-291">
          <mxGeometry x="213" width="43" height="62" as="geometry" />
        </mxCell>
        <mxCell id="yYmLJBY1VGcVjmOozNTZ-298" value="0" style="shape=partialRectangle;html=1;whiteSpace=wrap;connectable=0;overflow=hidden;fillColor=none;top=0;left=0;bottom=0;right=0;fontStyle=1;fontFamily=Courier New;" vertex="1" parent="yYmLJBY1VGcVjmOozNTZ-291">
          <mxGeometry x="256" width="42" height="62" as="geometry" />
        </mxCell>
        <mxCell id="yYmLJBY1VGcVjmOozNTZ-299" value="0" style="shape=partialRectangle;html=1;whiteSpace=wrap;connectable=0;overflow=hidden;fillColor=none;top=0;left=0;bottom=0;right=0;fontStyle=1;fontFamily=Courier New;" vertex="1" parent="yYmLJBY1VGcVjmOozNTZ-291">
          <mxGeometry x="298" width="38" height="62" as="geometry" />
        </mxCell>
        <mxCell id="yYmLJBY1VGcVjmOozNTZ-300" value="0" style="shape=partialRectangle;html=1;whiteSpace=wrap;connectable=0;overflow=hidden;fillColor=none;top=0;left=0;bottom=0;right=0;fontStyle=1;fontFamily=Courier New;" vertex="1" parent="yYmLJBY1VGcVjmOozNTZ-291">
          <mxGeometry x="336" width="32" height="62" as="geometry" />
        </mxCell>
        <mxCell id="yYmLJBY1VGcVjmOozNTZ-301" value="0" style="shape=partialRectangle;html=1;whiteSpace=wrap;connectable=0;overflow=hidden;fillColor=none;top=0;left=0;bottom=0;right=0;fontStyle=1;fontFamily=Courier New;" vertex="1" parent="yYmLJBY1VGcVjmOozNTZ-291">
          <mxGeometry x="368" width="44" height="62" as="geometry" />
        </mxCell>
        <mxCell id="yYmLJBY1VGcVjmOozNTZ-302" value="" style="shape=partialRectangle;html=1;whiteSpace=wrap;connectable=0;overflow=hidden;fillColor=none;top=0;left=0;bottom=0;right=0;fontStyle=1;fontFamily=Courier New;" vertex="1" parent="yYmLJBY1VGcVjmOozNTZ-291">
          <mxGeometry x="412" width="53" height="62" as="geometry" />
        </mxCell>
        <mxCell id="yYmLJBY1VGcVjmOozNTZ-303" value="0" style="shape=partialRectangle;html=1;whiteSpace=wrap;connectable=0;overflow=hidden;fillColor=none;top=0;left=0;bottom=0;right=0;fontStyle=1;fontFamily=Courier New;" vertex="1" parent="yYmLJBY1VGcVjmOozNTZ-291">
          <mxGeometry x="465" width="31" height="62" as="geometry" />
        </mxCell>
        <mxCell id="yYmLJBY1VGcVjmOozNTZ-304" value="0" style="shape=partialRectangle;html=1;whiteSpace=wrap;connectable=0;overflow=hidden;fillColor=none;top=0;left=0;bottom=0;right=0;fontStyle=1;fontFamily=Courier New;" vertex="1" parent="yYmLJBY1VGcVjmOozNTZ-291">
          <mxGeometry x="496" width="41" height="62" as="geometry" />
        </mxCell>
        <mxCell id="yYmLJBY1VGcVjmOozNTZ-305" value="0" style="shape=partialRectangle;html=1;whiteSpace=wrap;connectable=0;overflow=hidden;fillColor=none;top=0;left=0;bottom=0;right=0;fontStyle=1;fontFamily=Courier New;" vertex="1" parent="yYmLJBY1VGcVjmOozNTZ-291">
          <mxGeometry x="537" width="43" height="62" as="geometry" />
        </mxCell>
        <mxCell id="yYmLJBY1VGcVjmOozNTZ-306" value="0" style="shape=partialRectangle;html=1;whiteSpace=wrap;connectable=0;overflow=hidden;fillColor=none;top=0;left=0;bottom=0;right=0;fontStyle=1;fontFamily=Courier New;" vertex="1" parent="yYmLJBY1VGcVjmOozNTZ-291">
          <mxGeometry x="580" width="43" height="62" as="geometry" />
        </mxCell>
        <mxCell id="yYmLJBY1VGcVjmOozNTZ-307" value="0" style="shape=partialRectangle;html=1;whiteSpace=wrap;connectable=0;overflow=hidden;fillColor=none;top=0;left=0;bottom=0;right=0;fontStyle=1;fontFamily=Courier New;" vertex="1" parent="yYmLJBY1VGcVjmOozNTZ-291">
          <mxGeometry x="623" width="43" height="62" as="geometry" />
        </mxCell>
        <mxCell id="yYmLJBY1VGcVjmOozNTZ-308" value="" style="shape=partialRectangle;html=1;whiteSpace=wrap;collapsible=0;dropTarget=0;pointerEvents=0;fillColor=none;top=0;left=0;bottom=0;right=0;points=[[0,0.5],[1,0.5]];portConstraint=eastwest;fontStyle=1;fontFamily=Courier New;" vertex="1" parent="yYmLJBY1VGcVjmOozNTZ-273">
          <mxGeometry y="128" width="666" height="126" as="geometry" />
        </mxCell>
        <mxCell id="yYmLJBY1VGcVjmOozNTZ-309" value="" style="shape=partialRectangle;html=1;whiteSpace=wrap;connectable=0;overflow=hidden;fillColor=none;top=0;left=0;bottom=0;right=0;fontStyle=1;fontFamily=Courier New;" vertex="1" parent="yYmLJBY1VGcVjmOozNTZ-308">
          <mxGeometry width="43" height="126" as="geometry" />
        </mxCell>
        <mxCell id="yYmLJBY1VGcVjmOozNTZ-310" value="" style="shape=partialRectangle;html=1;whiteSpace=wrap;connectable=0;overflow=hidden;fillColor=none;top=0;left=0;bottom=0;right=0;fontStyle=1;fontFamily=Courier New;" vertex="1" parent="yYmLJBY1VGcVjmOozNTZ-308">
          <mxGeometry x="43" width="43" height="126" as="geometry" />
        </mxCell>
        <mxCell id="yYmLJBY1VGcVjmOozNTZ-311" value="" style="shape=partialRectangle;html=1;whiteSpace=wrap;connectable=0;overflow=hidden;fillColor=none;top=0;left=0;bottom=0;right=0;fontStyle=1;fontFamily=Courier New;" vertex="1" parent="yYmLJBY1VGcVjmOozNTZ-308">
          <mxGeometry x="86" width="43" height="126" as="geometry" />
        </mxCell>
        <mxCell id="yYmLJBY1VGcVjmOozNTZ-312" value="" style="shape=partialRectangle;html=1;whiteSpace=wrap;connectable=0;overflow=hidden;fillColor=none;top=0;left=0;bottom=0;right=0;fontStyle=1;fontFamily=Courier New;" vertex="1" parent="yYmLJBY1VGcVjmOozNTZ-308">
          <mxGeometry x="129" width="40" height="126" as="geometry" />
        </mxCell>
        <mxCell id="yYmLJBY1VGcVjmOozNTZ-313" value="" style="shape=partialRectangle;html=1;whiteSpace=wrap;connectable=0;overflow=hidden;fillColor=none;top=0;left=0;bottom=0;right=0;fontStyle=1;fontFamily=Courier New;" vertex="1" parent="yYmLJBY1VGcVjmOozNTZ-308">
          <mxGeometry x="169" width="44" height="126" as="geometry" />
        </mxCell>
        <mxCell id="yYmLJBY1VGcVjmOozNTZ-314" value="" style="shape=partialRectangle;html=1;whiteSpace=wrap;connectable=0;overflow=hidden;fillColor=none;top=0;left=0;bottom=0;right=0;fontStyle=1;fontFamily=Courier New;dashed=1;" vertex="1" parent="yYmLJBY1VGcVjmOozNTZ-308">
          <mxGeometry x="213" width="43" height="126" as="geometry" />
        </mxCell>
        <mxCell id="yYmLJBY1VGcVjmOozNTZ-315" value="" style="shape=partialRectangle;html=1;whiteSpace=wrap;connectable=0;overflow=hidden;fillColor=none;top=0;left=0;bottom=0;right=0;fontStyle=1;fontFamily=Courier New;" vertex="1" parent="yYmLJBY1VGcVjmOozNTZ-308">
          <mxGeometry x="256" width="42" height="126" as="geometry" />
        </mxCell>
        <mxCell id="yYmLJBY1VGcVjmOozNTZ-316" value="" style="shape=partialRectangle;html=1;whiteSpace=wrap;connectable=0;overflow=hidden;fillColor=none;top=0;left=0;bottom=0;right=0;fontStyle=1;fontFamily=Courier New;" vertex="1" parent="yYmLJBY1VGcVjmOozNTZ-308">
          <mxGeometry x="298" width="38" height="126" as="geometry" />
        </mxCell>
        <mxCell id="yYmLJBY1VGcVjmOozNTZ-317" value="" style="shape=partialRectangle;html=1;whiteSpace=wrap;connectable=0;overflow=hidden;fillColor=none;top=0;left=0;bottom=0;right=0;fontStyle=1;fontFamily=Courier New;" vertex="1" parent="yYmLJBY1VGcVjmOozNTZ-308">
          <mxGeometry x="336" width="32" height="126" as="geometry" />
        </mxCell>
        <mxCell id="yYmLJBY1VGcVjmOozNTZ-318" value="" style="shape=partialRectangle;html=1;whiteSpace=wrap;connectable=0;overflow=hidden;fillColor=none;top=0;left=0;bottom=0;right=0;fontStyle=1;fontFamily=Courier New;" vertex="1" parent="yYmLJBY1VGcVjmOozNTZ-308">
          <mxGeometry x="368" width="44" height="126" as="geometry" />
        </mxCell>
        <mxCell id="yYmLJBY1VGcVjmOozNTZ-319" value="..." style="shape=partialRectangle;html=1;whiteSpace=wrap;connectable=0;overflow=hidden;fillColor=none;top=0;left=0;bottom=0;right=0;fontStyle=1;fontFamily=Courier New;" vertex="1" parent="yYmLJBY1VGcVjmOozNTZ-308">
          <mxGeometry x="412" width="53" height="126" as="geometry" />
        </mxCell>
        <mxCell id="yYmLJBY1VGcVjmOozNTZ-320" value="" style="shape=partialRectangle;html=1;whiteSpace=wrap;connectable=0;overflow=hidden;fillColor=none;top=0;left=0;bottom=0;right=0;fontStyle=1;fontFamily=Courier New;" vertex="1" parent="yYmLJBY1VGcVjmOozNTZ-308">
          <mxGeometry x="465" width="31" height="126" as="geometry" />
        </mxCell>
        <mxCell id="yYmLJBY1VGcVjmOozNTZ-321" value="" style="shape=partialRectangle;html=1;whiteSpace=wrap;connectable=0;overflow=hidden;fillColor=none;top=0;left=0;bottom=0;right=0;fontStyle=1;fontFamily=Courier New;" vertex="1" parent="yYmLJBY1VGcVjmOozNTZ-308">
          <mxGeometry x="496" width="41" height="126" as="geometry" />
        </mxCell>
        <mxCell id="yYmLJBY1VGcVjmOozNTZ-322" value="" style="shape=partialRectangle;html=1;whiteSpace=wrap;connectable=0;overflow=hidden;fillColor=none;top=0;left=0;bottom=0;right=0;fontStyle=1;fontFamily=Courier New;" vertex="1" parent="yYmLJBY1VGcVjmOozNTZ-308">
          <mxGeometry x="537" width="43" height="126" as="geometry" />
        </mxCell>
        <mxCell id="yYmLJBY1VGcVjmOozNTZ-323" value="" style="shape=partialRectangle;html=1;whiteSpace=wrap;connectable=0;overflow=hidden;fillColor=none;top=0;left=0;bottom=0;right=0;fontStyle=1;fontFamily=Courier New;" vertex="1" parent="yYmLJBY1VGcVjmOozNTZ-308">
          <mxGeometry x="580" width="43" height="126" as="geometry" />
        </mxCell>
        <mxCell id="yYmLJBY1VGcVjmOozNTZ-324" value="" style="shape=partialRectangle;html=1;whiteSpace=wrap;connectable=0;overflow=hidden;fillColor=none;top=0;left=0;bottom=0;right=0;fontStyle=1;fontFamily=Courier New;" vertex="1" parent="yYmLJBY1VGcVjmOozNTZ-308">
          <mxGeometry x="623" width="43" height="126" as="geometry" />
        </mxCell>
        <mxCell id="yYmLJBY1VGcVjmOozNTZ-325" value="" style="shape=partialRectangle;html=1;whiteSpace=wrap;collapsible=0;dropTarget=0;pointerEvents=0;fillColor=none;top=0;left=0;bottom=0;right=0;points=[[0,0.5],[1,0.5]];portConstraint=eastwest;fontStyle=1;fontFamily=Courier New;" vertex="1" parent="yYmLJBY1VGcVjmOozNTZ-273">
          <mxGeometry y="254" width="666" height="66" as="geometry" />
        </mxCell>
        <mxCell id="yYmLJBY1VGcVjmOozNTZ-326" value="0" style="shape=partialRectangle;html=1;whiteSpace=wrap;connectable=0;overflow=hidden;fillColor=none;top=0;left=0;bottom=0;right=0;fontStyle=1;fontFamily=Courier New;" vertex="1" parent="yYmLJBY1VGcVjmOozNTZ-325">
          <mxGeometry width="43" height="66" as="geometry" />
        </mxCell>
        <mxCell id="yYmLJBY1VGcVjmOozNTZ-327" value="0" style="shape=partialRectangle;html=1;whiteSpace=wrap;connectable=0;overflow=hidden;fillColor=none;top=0;left=0;bottom=0;right=0;fontStyle=1;fontFamily=Courier New;" vertex="1" parent="yYmLJBY1VGcVjmOozNTZ-325">
          <mxGeometry x="43" width="43" height="66" as="geometry" />
        </mxCell>
        <mxCell id="yYmLJBY1VGcVjmOozNTZ-328" value="0" style="shape=partialRectangle;html=1;whiteSpace=wrap;connectable=0;overflow=hidden;fillColor=none;top=0;left=0;bottom=0;right=0;fontStyle=1;fontFamily=Courier New;" vertex="1" parent="yYmLJBY1VGcVjmOozNTZ-325">
          <mxGeometry x="86" width="43" height="66" as="geometry" />
        </mxCell>
        <mxCell id="yYmLJBY1VGcVjmOozNTZ-329" value="0" style="shape=partialRectangle;html=1;whiteSpace=wrap;connectable=0;overflow=hidden;fillColor=none;top=0;left=0;bottom=0;right=0;fontStyle=1;fontFamily=Courier New;" vertex="1" parent="yYmLJBY1VGcVjmOozNTZ-325">
          <mxGeometry x="129" width="40" height="66" as="geometry" />
        </mxCell>
        <mxCell id="yYmLJBY1VGcVjmOozNTZ-330" value="0" style="shape=partialRectangle;html=1;whiteSpace=wrap;connectable=0;overflow=hidden;fillColor=none;top=0;left=0;bottom=0;right=0;fontStyle=1;fontFamily=Courier New;" vertex="1" parent="yYmLJBY1VGcVjmOozNTZ-325">
          <mxGeometry x="169" width="44" height="66" as="geometry" />
        </mxCell>
        <mxCell id="yYmLJBY1VGcVjmOozNTZ-331" value="0" style="shape=partialRectangle;html=1;whiteSpace=wrap;connectable=0;overflow=hidden;fillColor=none;top=0;left=0;bottom=0;right=0;fontStyle=1;fontFamily=Courier New;" vertex="1" parent="yYmLJBY1VGcVjmOozNTZ-325">
          <mxGeometry x="213" width="43" height="66" as="geometry" />
        </mxCell>
        <mxCell id="yYmLJBY1VGcVjmOozNTZ-332" value="0" style="shape=partialRectangle;html=1;whiteSpace=wrap;connectable=0;overflow=hidden;fillColor=none;top=0;left=0;bottom=0;right=0;fontStyle=1;fontFamily=Courier New;" vertex="1" parent="yYmLJBY1VGcVjmOozNTZ-325">
          <mxGeometry x="256" width="42" height="66" as="geometry" />
        </mxCell>
        <mxCell id="yYmLJBY1VGcVjmOozNTZ-333" value="0" style="shape=partialRectangle;html=1;whiteSpace=wrap;connectable=0;overflow=hidden;fillColor=none;top=0;left=0;bottom=0;right=0;fontStyle=1;fontFamily=Courier New;" vertex="1" parent="yYmLJBY1VGcVjmOozNTZ-325">
          <mxGeometry x="298" width="38" height="66" as="geometry" />
        </mxCell>
        <mxCell id="yYmLJBY1VGcVjmOozNTZ-334" value="0" style="shape=partialRectangle;html=1;whiteSpace=wrap;connectable=0;overflow=hidden;fillColor=none;top=0;left=0;bottom=0;right=0;fontStyle=1;fontFamily=Courier New;" vertex="1" parent="yYmLJBY1VGcVjmOozNTZ-325">
          <mxGeometry x="336" width="32" height="66" as="geometry" />
        </mxCell>
        <mxCell id="yYmLJBY1VGcVjmOozNTZ-335" value="1" style="shape=partialRectangle;html=1;whiteSpace=wrap;connectable=0;overflow=hidden;fillColor=none;top=0;left=0;bottom=0;right=0;fontStyle=1;fontFamily=Courier New;" vertex="1" parent="yYmLJBY1VGcVjmOozNTZ-325">
          <mxGeometry x="368" width="44" height="66" as="geometry" />
        </mxCell>
        <mxCell id="yYmLJBY1VGcVjmOozNTZ-336" value="" style="shape=partialRectangle;html=1;whiteSpace=wrap;connectable=0;overflow=hidden;fillColor=none;top=0;left=0;bottom=0;right=0;fontStyle=1;fontFamily=Courier New;" vertex="1" parent="yYmLJBY1VGcVjmOozNTZ-325">
          <mxGeometry x="412" width="53" height="66" as="geometry" />
        </mxCell>
        <mxCell id="yYmLJBY1VGcVjmOozNTZ-337" value="0" style="shape=partialRectangle;html=1;whiteSpace=wrap;connectable=0;overflow=hidden;fillColor=none;top=0;left=0;bottom=0;right=0;fontStyle=1;fontFamily=Courier New;" vertex="1" parent="yYmLJBY1VGcVjmOozNTZ-325">
          <mxGeometry x="465" width="31" height="66" as="geometry" />
        </mxCell>
        <mxCell id="yYmLJBY1VGcVjmOozNTZ-338" value="0" style="shape=partialRectangle;html=1;whiteSpace=wrap;connectable=0;overflow=hidden;fillColor=none;top=0;left=0;bottom=0;right=0;fontStyle=1;fontFamily=Courier New;" vertex="1" parent="yYmLJBY1VGcVjmOozNTZ-325">
          <mxGeometry x="496" width="41" height="66" as="geometry" />
        </mxCell>
        <mxCell id="yYmLJBY1VGcVjmOozNTZ-339" value="0" style="shape=partialRectangle;html=1;whiteSpace=wrap;connectable=0;overflow=hidden;fillColor=none;top=0;left=0;bottom=0;right=0;fontStyle=1;fontFamily=Courier New;" vertex="1" parent="yYmLJBY1VGcVjmOozNTZ-325">
          <mxGeometry x="537" width="43" height="66" as="geometry" />
        </mxCell>
        <mxCell id="yYmLJBY1VGcVjmOozNTZ-340" value="0" style="shape=partialRectangle;html=1;whiteSpace=wrap;connectable=0;overflow=hidden;fillColor=none;top=0;left=0;bottom=0;right=0;fontStyle=1;fontFamily=Courier New;" vertex="1" parent="yYmLJBY1VGcVjmOozNTZ-325">
          <mxGeometry x="580" width="43" height="66" as="geometry" />
        </mxCell>
        <mxCell id="yYmLJBY1VGcVjmOozNTZ-341" value="0" style="shape=partialRectangle;html=1;whiteSpace=wrap;connectable=0;overflow=hidden;fillColor=none;top=0;left=0;bottom=0;right=0;fontStyle=1;fontFamily=Courier New;" vertex="1" parent="yYmLJBY1VGcVjmOozNTZ-325">
          <mxGeometry x="623" width="43" height="66" as="geometry" />
        </mxCell>
        <mxCell id="yYmLJBY1VGcVjmOozNTZ-342" value="" style="edgeStyle=orthogonalEdgeStyle;rounded=0;orthogonalLoop=1;jettySize=auto;html=1;fontFamily=Courier New;fontSize=16;sketch=1;fontStyle=1" edge="1" parent="1">
          <mxGeometry relative="1" as="geometry">
            <mxPoint x="310" y="629.58" as="sourcePoint" />
            <mxPoint x="360" y="629.58" as="targetPoint" />
            <Array as="points">
              <mxPoint x="300" y="630.08" />
              <mxPoint x="300" y="630.08" />
            </Array>
          </mxGeometry>
        </mxCell>
        <mxCell id="yYmLJBY1VGcVjmOozNTZ-343" value="" style="shape=table;html=1;whiteSpace=wrap;startSize=0;container=1;collapsible=0;childLayout=tableLayout;fontSize=16;fontFamily=Courier New;fontStyle=1;swimlaneFillColor=#ffffff;fillColor=#D4E1F5;sketch=0;" vertex="1" parent="1">
          <mxGeometry x="40" y="480" width="240" height="320" as="geometry" />
        </mxCell>
        <mxCell id="yYmLJBY1VGcVjmOozNTZ-344" value="" style="shape=partialRectangle;html=1;whiteSpace=wrap;collapsible=0;dropTarget=0;pointerEvents=0;fillColor=none;top=0;left=0;bottom=0;right=0;points=[[0,0.5],[1,0.5]];portConstraint=eastwest;fontSize=16;fontFamily=Courier New;fontStyle=1" vertex="1" parent="yYmLJBY1VGcVjmOozNTZ-343">
          <mxGeometry width="240" height="80" as="geometry" />
        </mxCell>
        <mxCell id="yYmLJBY1VGcVjmOozNTZ-345" value="5" style="shape=partialRectangle;html=1;whiteSpace=wrap;connectable=0;overflow=hidden;fillColor=none;top=0;left=0;bottom=0;right=0;fontSize=16;fontFamily=Courier New;fontStyle=1" vertex="1" parent="yYmLJBY1VGcVjmOozNTZ-344">
          <mxGeometry width="51" height="80" as="geometry" />
        </mxCell>
        <mxCell id="yYmLJBY1VGcVjmOozNTZ-346" value="3" style="shape=partialRectangle;html=1;whiteSpace=wrap;connectable=0;overflow=hidden;fillColor=none;top=0;left=0;bottom=0;right=0;fontSize=16;fontFamily=Courier New;fontStyle=1" vertex="1" parent="yYmLJBY1VGcVjmOozNTZ-344">
          <mxGeometry x="51" width="52" height="80" as="geometry" />
        </mxCell>
        <mxCell id="yYmLJBY1VGcVjmOozNTZ-347" value="..." style="shape=partialRectangle;html=1;whiteSpace=wrap;connectable=0;overflow=hidden;fillColor=none;top=0;left=0;bottom=0;right=0;dashed=1;fontSize=16;fontFamily=Courier New;fontStyle=1;strokeColor=none;" vertex="1" parent="yYmLJBY1VGcVjmOozNTZ-344">
          <mxGeometry x="103" width="87" height="80" as="geometry" />
        </mxCell>
        <mxCell id="yYmLJBY1VGcVjmOozNTZ-348" value="4" style="shape=partialRectangle;html=1;whiteSpace=wrap;connectable=0;overflow=hidden;fillColor=none;top=0;left=0;bottom=0;right=0;fontSize=16;fontFamily=Courier New;fontStyle=1" vertex="1" parent="yYmLJBY1VGcVjmOozNTZ-344">
          <mxGeometry x="190" width="50" height="80" as="geometry" />
        </mxCell>
        <mxCell id="yYmLJBY1VGcVjmOozNTZ-349" value="" style="shape=partialRectangle;html=1;whiteSpace=wrap;collapsible=0;dropTarget=0;pointerEvents=0;fillColor=none;top=0;left=0;bottom=0;right=0;points=[[0,0.5],[1,0.5]];portConstraint=eastwest;fontSize=16;fontFamily=Courier New;fontStyle=1" vertex="1" parent="yYmLJBY1VGcVjmOozNTZ-343">
          <mxGeometry y="80" width="240" height="81" as="geometry" />
        </mxCell>
        <mxCell id="yYmLJBY1VGcVjmOozNTZ-350" value="1" style="shape=partialRectangle;html=1;whiteSpace=wrap;connectable=0;overflow=hidden;fillColor=none;top=0;left=0;bottom=0;right=0;fontSize=16;fontFamily=Courier New;fontStyle=1" vertex="1" parent="yYmLJBY1VGcVjmOozNTZ-349">
          <mxGeometry width="51" height="81" as="geometry" />
        </mxCell>
        <mxCell id="yYmLJBY1VGcVjmOozNTZ-351" value="0" style="shape=partialRectangle;html=1;whiteSpace=wrap;connectable=0;overflow=hidden;fillColor=none;top=0;left=0;bottom=0;right=0;fontSize=16;fontFamily=Courier New;fontStyle=1" vertex="1" parent="yYmLJBY1VGcVjmOozNTZ-349">
          <mxGeometry x="51" width="52" height="81" as="geometry" />
        </mxCell>
        <mxCell id="yYmLJBY1VGcVjmOozNTZ-352" value="..." style="shape=partialRectangle;html=1;whiteSpace=wrap;connectable=0;overflow=hidden;fillColor=none;top=0;left=0;bottom=0;right=0;fontSize=16;fontFamily=Courier New;fontStyle=1" vertex="1" parent="yYmLJBY1VGcVjmOozNTZ-349">
          <mxGeometry x="103" width="87" height="81" as="geometry" />
        </mxCell>
        <mxCell id="yYmLJBY1VGcVjmOozNTZ-353" value="0" style="shape=partialRectangle;html=1;whiteSpace=wrap;connectable=0;overflow=hidden;fillColor=none;top=0;left=0;bottom=0;right=0;fontSize=16;fontFamily=Courier New;fontStyle=1" vertex="1" parent="yYmLJBY1VGcVjmOozNTZ-349">
          <mxGeometry x="190" width="50" height="81" as="geometry" />
        </mxCell>
        <mxCell id="yYmLJBY1VGcVjmOozNTZ-354" value="" style="shape=partialRectangle;html=1;whiteSpace=wrap;collapsible=0;dropTarget=0;pointerEvents=0;fillColor=none;top=0;left=0;bottom=0;right=0;points=[[0,0.5],[1,0.5]];portConstraint=eastwest;strokeColor=none;fontSize=16;fontFamily=Courier New;fontStyle=1" vertex="1" parent="yYmLJBY1VGcVjmOozNTZ-343">
          <mxGeometry y="161" width="240" height="80" as="geometry" />
        </mxCell>
        <mxCell id="yYmLJBY1VGcVjmOozNTZ-355" value="..." style="shape=partialRectangle;html=1;whiteSpace=wrap;connectable=0;overflow=hidden;fillColor=none;top=0;left=0;bottom=0;right=0;fontSize=16;fontFamily=Courier New;fontStyle=1" vertex="1" parent="yYmLJBY1VGcVjmOozNTZ-354">
          <mxGeometry width="51" height="80" as="geometry" />
        </mxCell>
        <mxCell id="yYmLJBY1VGcVjmOozNTZ-356" value="..." style="shape=partialRectangle;html=1;whiteSpace=wrap;connectable=0;overflow=hidden;fillColor=none;top=0;left=0;bottom=0;right=0;fontSize=16;fontFamily=Courier New;fontStyle=1" vertex="1" parent="yYmLJBY1VGcVjmOozNTZ-354">
          <mxGeometry x="51" width="52" height="80" as="geometry" />
        </mxCell>
        <mxCell id="yYmLJBY1VGcVjmOozNTZ-357" value="..." style="shape=partialRectangle;html=1;whiteSpace=wrap;connectable=0;overflow=hidden;fillColor=none;top=0;left=0;bottom=0;right=0;fontSize=16;fontFamily=Courier New;fontStyle=1" vertex="1" parent="yYmLJBY1VGcVjmOozNTZ-354">
          <mxGeometry x="103" width="87" height="80" as="geometry" />
        </mxCell>
        <mxCell id="yYmLJBY1VGcVjmOozNTZ-358" value="..." style="shape=partialRectangle;html=1;whiteSpace=wrap;connectable=0;overflow=hidden;fillColor=none;top=0;left=0;bottom=0;right=0;fontSize=16;fontFamily=Courier New;fontStyle=1" vertex="1" parent="yYmLJBY1VGcVjmOozNTZ-354">
          <mxGeometry x="190" width="50" height="80" as="geometry" />
        </mxCell>
        <mxCell id="yYmLJBY1VGcVjmOozNTZ-359" value="" style="shape=partialRectangle;html=1;whiteSpace=wrap;collapsible=0;dropTarget=0;pointerEvents=0;fillColor=none;top=0;left=0;bottom=0;right=0;points=[[0,0.5],[1,0.5]];portConstraint=eastwest;fontSize=16;fontFamily=Courier New;fontStyle=1" vertex="1" parent="yYmLJBY1VGcVjmOozNTZ-343">
          <mxGeometry y="241" width="240" height="79" as="geometry" />
        </mxCell>
        <mxCell id="yYmLJBY1VGcVjmOozNTZ-360" value="0" style="shape=partialRectangle;html=1;whiteSpace=wrap;connectable=0;overflow=hidden;fillColor=none;top=0;left=0;bottom=0;right=0;fontSize=16;fontFamily=Courier New;fontStyle=1" vertex="1" parent="yYmLJBY1VGcVjmOozNTZ-359">
          <mxGeometry width="51" height="79" as="geometry" />
        </mxCell>
        <mxCell id="yYmLJBY1VGcVjmOozNTZ-361" value="5" style="shape=partialRectangle;html=1;whiteSpace=wrap;connectable=0;overflow=hidden;fillColor=none;top=0;left=0;bottom=0;right=0;fontSize=16;fontFamily=Courier New;fontStyle=1" vertex="1" parent="yYmLJBY1VGcVjmOozNTZ-359">
          <mxGeometry x="51" width="52" height="79" as="geometry" />
        </mxCell>
        <mxCell id="yYmLJBY1VGcVjmOozNTZ-362" value="..." style="shape=partialRectangle;html=1;whiteSpace=wrap;connectable=0;overflow=hidden;fillColor=none;top=0;left=0;bottom=0;right=0;fontSize=16;fontFamily=Courier New;fontStyle=1" vertex="1" parent="yYmLJBY1VGcVjmOozNTZ-359">
          <mxGeometry x="103" width="87" height="79" as="geometry" />
        </mxCell>
        <mxCell id="yYmLJBY1VGcVjmOozNTZ-363" value="0" style="shape=partialRectangle;html=1;whiteSpace=wrap;connectable=0;overflow=hidden;fillColor=none;top=0;left=0;bottom=0;right=0;fontSize=16;fontFamily=Courier New;fontStyle=1" vertex="1" parent="yYmLJBY1VGcVjmOozNTZ-359">
          <mxGeometry x="190" width="50" height="79" as="geometry" />
        </mxCell>
        <mxCell id="yYmLJBY1VGcVjmOozNTZ-364" value="&lt;span&gt;&lt;font style=&quot;font-size: 19px&quot;&gt;R&lt;/font&gt;&lt;/span&gt;" style="text;html=1;strokeColor=none;fillColor=none;align=center;verticalAlign=middle;whiteSpace=wrap;rounded=0;dashed=1;fontFamily=Courier New;fontSize=16;fontStyle=1" vertex="1" parent="1">
          <mxGeometry x="140" y="440" width="40" height="20" as="geometry" />
        </mxCell>
        <mxCell id="yYmLJBY1VGcVjmOozNTZ-365" value="&lt;span&gt;&lt;font style=&quot;font-size: 19px&quot;&gt;A_ohe&lt;/font&gt;&lt;/span&gt;" style="text;html=1;strokeColor=none;fillColor=none;align=center;verticalAlign=middle;whiteSpace=wrap;rounded=0;dashed=1;fontFamily=Courier New;fontSize=16;fontStyle=1" vertex="1" parent="1">
          <mxGeometry x="699" y="440" width="40" height="20" as="geometry" />
        </mxCell>
        <mxCell id="yYmLJBY1VGcVjmOozNTZ-366" value="" style="shape=table;html=1;whiteSpace=wrap;startSize=0;container=1;collapsible=0;childLayout=tableLayout;fontSize=16;fontFamily=Courier New;fontStyle=1;sketch=0;fillColor=#D4E1F5;" vertex="1" parent="1">
          <mxGeometry x="33" y="900" width="666" height="310" as="geometry" />
        </mxCell>
        <mxCell id="yYmLJBY1VGcVjmOozNTZ-367" value="" style="shape=partialRectangle;html=1;whiteSpace=wrap;collapsible=0;dropTarget=0;pointerEvents=0;fillColor=none;top=0;left=0;bottom=0;right=0;points=[[0,0.5],[1,0.5]];portConstraint=eastwest;fontSize=16;fontFamily=Courier New;fontStyle=1" vertex="1" parent="yYmLJBY1VGcVjmOozNTZ-366">
          <mxGeometry width="666" height="78" as="geometry" />
        </mxCell>
        <mxCell id="yYmLJBY1VGcVjmOozNTZ-368" value="emb_5" style="shape=partialRectangle;html=1;whiteSpace=wrap;connectable=0;overflow=hidden;fillColor=none;top=0;left=0;bottom=0;right=0;fontSize=16;fontFamily=Courier New;fontStyle=1" vertex="1" parent="yYmLJBY1VGcVjmOozNTZ-367">
          <mxGeometry width="145" height="78" as="geometry" />
        </mxCell>
        <mxCell id="yYmLJBY1VGcVjmOozNTZ-369" value="emb_3" style="shape=partialRectangle;html=1;whiteSpace=wrap;connectable=0;overflow=hidden;fillColor=none;top=0;left=0;bottom=0;right=0;fontSize=16;fontFamily=Courier New;fontStyle=1" vertex="1" parent="yYmLJBY1VGcVjmOozNTZ-367">
          <mxGeometry x="145" width="138" height="78" as="geometry" />
        </mxCell>
        <mxCell id="yYmLJBY1VGcVjmOozNTZ-370" value="..." style="shape=partialRectangle;html=1;whiteSpace=wrap;connectable=0;overflow=hidden;fillColor=none;top=0;left=0;bottom=0;right=0;dashed=1;fontSize=16;fontFamily=Courier New;fontStyle=1;strokeColor=none;" vertex="1" parent="yYmLJBY1VGcVjmOozNTZ-367">
          <mxGeometry x="283" width="238" height="78" as="geometry" />
        </mxCell>
        <mxCell id="yYmLJBY1VGcVjmOozNTZ-371" value="emb_4" style="shape=partialRectangle;html=1;whiteSpace=wrap;connectable=0;overflow=hidden;fillColor=none;top=0;left=0;bottom=0;right=0;fontSize=16;fontFamily=Courier New;fontStyle=1" vertex="1" parent="yYmLJBY1VGcVjmOozNTZ-367">
          <mxGeometry x="521" width="145" height="78" as="geometry" />
        </mxCell>
        <mxCell id="yYmLJBY1VGcVjmOozNTZ-372" value="" style="shape=partialRectangle;html=1;whiteSpace=wrap;collapsible=0;dropTarget=0;pointerEvents=0;fillColor=none;top=0;left=0;bottom=0;right=0;points=[[0,0.5],[1,0.5]];portConstraint=eastwest;fontSize=16;fontFamily=Courier New;fontStyle=1" vertex="1" parent="yYmLJBY1VGcVjmOozNTZ-366">
          <mxGeometry y="78" width="666" height="77" as="geometry" />
        </mxCell>
        <mxCell id="yYmLJBY1VGcVjmOozNTZ-373" value="emb_1" style="shape=partialRectangle;html=1;whiteSpace=wrap;connectable=0;overflow=hidden;fillColor=none;top=0;left=0;bottom=0;right=0;fontSize=16;fontFamily=Courier New;fontStyle=1" vertex="1" parent="yYmLJBY1VGcVjmOozNTZ-372">
          <mxGeometry width="145" height="77" as="geometry" />
        </mxCell>
        <mxCell id="yYmLJBY1VGcVjmOozNTZ-374" value="emb_0" style="shape=partialRectangle;html=1;whiteSpace=wrap;connectable=0;overflow=hidden;fillColor=none;top=0;left=0;bottom=0;right=0;fontSize=16;fontFamily=Courier New;fontStyle=1" vertex="1" parent="yYmLJBY1VGcVjmOozNTZ-372">
          <mxGeometry x="145" width="138" height="77" as="geometry" />
        </mxCell>
        <mxCell id="yYmLJBY1VGcVjmOozNTZ-375" value="..." style="shape=partialRectangle;html=1;whiteSpace=wrap;connectable=0;overflow=hidden;fillColor=none;top=0;left=0;bottom=0;right=0;fontSize=16;fontFamily=Courier New;fontStyle=1" vertex="1" parent="yYmLJBY1VGcVjmOozNTZ-372">
          <mxGeometry x="283" width="238" height="77" as="geometry" />
        </mxCell>
        <mxCell id="yYmLJBY1VGcVjmOozNTZ-376" value="emb_0" style="shape=partialRectangle;html=1;whiteSpace=wrap;connectable=0;overflow=hidden;fillColor=none;top=0;left=0;bottom=0;right=0;fontSize=16;fontFamily=Courier New;fontStyle=1" vertex="1" parent="yYmLJBY1VGcVjmOozNTZ-372">
          <mxGeometry x="521" width="145" height="77" as="geometry" />
        </mxCell>
        <mxCell id="yYmLJBY1VGcVjmOozNTZ-377" value="" style="shape=partialRectangle;html=1;whiteSpace=wrap;collapsible=0;dropTarget=0;pointerEvents=0;fillColor=none;top=0;left=0;bottom=0;right=0;points=[[0,0.5],[1,0.5]];portConstraint=eastwest;strokeColor=none;fontSize=16;fontFamily=Courier New;fontStyle=1" vertex="1" parent="yYmLJBY1VGcVjmOozNTZ-366">
          <mxGeometry y="155" width="666" height="78" as="geometry" />
        </mxCell>
        <mxCell id="yYmLJBY1VGcVjmOozNTZ-378" value="..." style="shape=partialRectangle;html=1;whiteSpace=wrap;connectable=0;overflow=hidden;fillColor=none;top=0;left=0;bottom=0;right=0;fontSize=16;fontFamily=Courier New;fontStyle=1" vertex="1" parent="yYmLJBY1VGcVjmOozNTZ-377">
          <mxGeometry width="145" height="78" as="geometry" />
        </mxCell>
        <mxCell id="yYmLJBY1VGcVjmOozNTZ-379" value="..." style="shape=partialRectangle;html=1;whiteSpace=wrap;connectable=0;overflow=hidden;fillColor=none;top=0;left=0;bottom=0;right=0;fontSize=16;fontFamily=Courier New;fontStyle=1" vertex="1" parent="yYmLJBY1VGcVjmOozNTZ-377">
          <mxGeometry x="145" width="138" height="78" as="geometry" />
        </mxCell>
        <mxCell id="yYmLJBY1VGcVjmOozNTZ-380" value="..." style="shape=partialRectangle;html=1;whiteSpace=wrap;connectable=0;overflow=hidden;fillColor=none;top=0;left=0;bottom=0;right=0;fontSize=16;fontFamily=Courier New;fontStyle=1" vertex="1" parent="yYmLJBY1VGcVjmOozNTZ-377">
          <mxGeometry x="283" width="238" height="78" as="geometry" />
        </mxCell>
        <mxCell id="yYmLJBY1VGcVjmOozNTZ-381" value="..." style="shape=partialRectangle;html=1;whiteSpace=wrap;connectable=0;overflow=hidden;fillColor=none;top=0;left=0;bottom=0;right=0;fontSize=16;fontFamily=Courier New;fontStyle=1" vertex="1" parent="yYmLJBY1VGcVjmOozNTZ-377">
          <mxGeometry x="521" width="145" height="78" as="geometry" />
        </mxCell>
        <mxCell id="yYmLJBY1VGcVjmOozNTZ-382" value="" style="shape=partialRectangle;html=1;whiteSpace=wrap;collapsible=0;dropTarget=0;pointerEvents=0;fillColor=none;top=0;left=0;bottom=0;right=0;points=[[0,0.5],[1,0.5]];portConstraint=eastwest;fontSize=16;fontFamily=Courier New;fontStyle=1" vertex="1" parent="yYmLJBY1VGcVjmOozNTZ-366">
          <mxGeometry y="233" width="666" height="77" as="geometry" />
        </mxCell>
        <mxCell id="yYmLJBY1VGcVjmOozNTZ-383" value="emb_0" style="shape=partialRectangle;html=1;whiteSpace=wrap;connectable=0;overflow=hidden;fillColor=none;top=0;left=0;bottom=0;right=0;fontSize=16;fontFamily=Courier New;fontStyle=1" vertex="1" parent="yYmLJBY1VGcVjmOozNTZ-382">
          <mxGeometry width="145" height="77" as="geometry" />
        </mxCell>
        <mxCell id="yYmLJBY1VGcVjmOozNTZ-384" value="emb_5" style="shape=partialRectangle;html=1;whiteSpace=wrap;connectable=0;overflow=hidden;fillColor=none;top=0;left=0;bottom=0;right=0;fontSize=16;fontFamily=Courier New;fontStyle=1" vertex="1" parent="yYmLJBY1VGcVjmOozNTZ-382">
          <mxGeometry x="145" width="138" height="77" as="geometry" />
        </mxCell>
        <mxCell id="yYmLJBY1VGcVjmOozNTZ-385" value="..." style="shape=partialRectangle;html=1;whiteSpace=wrap;connectable=0;overflow=hidden;fillColor=none;top=0;left=0;bottom=0;right=0;fontSize=16;fontFamily=Courier New;fontStyle=1" vertex="1" parent="yYmLJBY1VGcVjmOozNTZ-382">
          <mxGeometry x="283" width="238" height="77" as="geometry" />
        </mxCell>
        <mxCell id="yYmLJBY1VGcVjmOozNTZ-386" value="emb_0" style="shape=partialRectangle;html=1;whiteSpace=wrap;connectable=0;overflow=hidden;fillColor=none;top=0;left=0;bottom=0;right=0;fontSize=16;fontFamily=Courier New;fontStyle=1" vertex="1" parent="yYmLJBY1VGcVjmOozNTZ-382">
          <mxGeometry x="521" width="145" height="77" as="geometry" />
        </mxCell>
        <mxCell id="yYmLJBY1VGcVjmOozNTZ-387" value="" style="endArrow=none;html=1;strokeWidth=3;fontFamily=Courier New;fontSize=16;fillColor=#d80073;" edge="1" parent="1">
          <mxGeometry width="50" height="50" relative="1" as="geometry">
            <mxPoint x="598" y="802" as="sourcePoint" />
            <mxPoint x="600" y="480" as="targetPoint" />
            <Array as="points">
              <mxPoint x="598" y="640" />
            </Array>
          </mxGeometry>
        </mxCell>
      </root>
    </mxGraphModel>
  </diagram>
</mxfile>
